PERFORMER "Paul van Dyk"
TITLE "Essential Mix (2006-06-04) (Live @ Coloursfest, Glasgow)"
FILE "Paul_Van_Dyk_-_Live_at_Colourfest_Glasgow_Essential_Mix_(BBC_Radio_1)_04-06-2006.mp3" MP3
  TRACK 01 AUDIO
    PERFORMER "Essential Mix"
    TITLE "Intro"
    INDEX 01 00:00:00
  TRACK 02 AUDIO
    PERFORMER "Marco V"
    TITLE "Red Blue Purple"
    INDEX 01 00:52:38
  TRACK 03 AUDIO
    PERFORMER "ID"
    TITLE "ID"
    INDEX 01 05:17:33
  TRACK 04 AUDIO
    PERFORMER "Armin van Buuren"
    TITLE "Control Freak (Sander Van Doorn Remix)"
    INDEX 01 06:38:41
  TRACK 05 AUDIO
    PERFORMER "Super8 + P.O.S. pres. Aalto"
    TITLE "5 (Original Mix)"
    INDEX 01 11:52:06
  TRACK 06 AUDIO
    PERFORMER "Factoria"
    TITLE "Beneath The Surface"
    INDEX 01 12:59:48
  TRACK 07 AUDIO
    PERFORMER "ID"
    TITLE "ID"
    INDEX 01 18:10:10
  TRACK 08 AUDIO
    PERFORMER "Ronald van Gelderen"
    TITLE "This Way (Rank 1 Remix)"
    INDEX 01 22:40:08
  TRACK 09 AUDIO
    PERFORMER "Solar Movement"
    TITLE "Under The Sun"
    INDEX 01 27:57:40
  TRACK 10 AUDIO
    PERFORMER "Moby"
    TITLE "Beautiful (Remix)"
    INDEX 01 32:25:67
  TRACK 11 AUDIO
    PERFORMER "Mac & Mac"
    TITLE "Listen (Mac Zimms Dub)"
    INDEX 01 37:49:06
  TRACK 12 AUDIO
    PERFORMER "Sassot"
    TITLE "Empty (Aly & Fila Remix)"
    INDEX 01 39:36:60
  TRACK 13 AUDIO
    PERFORMER "Guiseppe Ottaviani"
    TITLE "Through Your Eyes"
    INDEX 01 45:00:12
  TRACK 14 AUDIO
    PERFORMER "Kuffdam & Plant feat. Terry Terminal"
    TITLE "The Ones We Loved"
    INDEX 01 54:41:08
  TRACK 15 AUDIO
    PERFORMER "Beam feat. Michelle Aragon"
    TITLE "Silent Tears (Shog's 2Faces Dub)"
    INDEX 01 58:42:66
  TRACK 16 AUDIO
    PERFORMER "Kuffdam & Plant"
    TITLE "Dream Makers (Shog's 2Faces Mix)"
    INDEX 01 61:10:46
  TRACK 17 AUDIO
    PERFORMER "Luminary"
    TITLE "Wasting (Ronski Speed Remix vs. Andy Moor Remix)"
    INDEX 01 63:24:56
  TRACK 18 AUDIO
    PERFORMER "Leo G"
    TITLE "Supersonic (Martin Roth's Girls Love DJ's Mix)"
    INDEX 01 68:30:38
  TRACK 19 AUDIO
    PERFORMER "Divini & Warning"
    TITLE "4 LB"
    INDEX 01 73:53:06
  TRACK 20 AUDIO
    PERFORMER "Terranova & Austin Leeds pres. Hi-Lo"
    TITLE "Shake Me"
    INDEX 01 78:48:62
  TRACK 21 AUDIO
    PERFORMER "Don Diablo"
    TITLE "Down The Drain"
    INDEX 01 81:43:20
  TRACK 22 AUDIO
    PERFORMER "Camisra"
    TITLE "Let Me Show You"
    INDEX 01 86:52:23
  TRACK 23 AUDIO
    PERFORMER "Paul van Dyk feat. Wayne Jackson"
    TITLE "The Other Side (Deep Dish Other Than This Side Remix)"
    INDEX 01 91:07:52
  TRACK 24 AUDIO
    PERFORMER "Da Hool"
    TITLE "Streetlife (Azzido Da Bass Mix)"
    INDEX 01 94:09:00
  TRACK 25 AUDIO
    PERFORMER "The Egg"
    TITLE "Walking Away (Tocadisco Remix)"
    INDEX 01 95:43:06
  TRACK 26 AUDIO
    PERFORMER "Signalrunners pres. Syndica"
    TITLE "Orange Sky"
    INDEX 01 99:31:42
  TRACK 27 AUDIO
    PERFORMER "DK8"
    TITLE "Murder Was The Bass (Reworked)"
    INDEX 01 102:39:52
  TRACK 28 AUDIO
    PERFORMER "Placebo"
    TITLE "Every You Every Me (Lexy & K-Paul Remix)"
    INDEX 01 104:00:26
  TRACK 29 AUDIO
    PERFORMER "Emjay"
    TITLE "Make Some Noise (Mac Zimms Remix)"
    INDEX 01 112:24:20
  TRACK 30 AUDIO
    PERFORMER "Paul van Dyk"
    TITLE "For An Angel (Marc van Linden Remix)"
    INDEX 01 114:51:63